<?xml version="1.0" encoding="utf-8"?>
<!-- Generator: Adobe Illustrator 25.4.1, SVG Export Plug-In . SVG Version: 6.00 Build 0)  -->
<svg version="1.1" id="Layer_1" xmlns="http://www.w3.org/2000/svg" xmlns:xlink="http://www.w3.org/1999/xlink" x="0px" y="0px"
	 viewBox="0 0 805 600" style="enable-background:new 0 0 805 600;" xml:space="preserve">
<style type="text/css">
	.st0{fill:#FFFFFF;}
	.st1{fill:#5E4FA2;}
	.st2{fill:#FDBE70;}
	.st3{fill:#BEE5A0;}
	.st4{fill:#9E0142;}
	.st5{font-family:'Arial-ItalicMT';}
	.st6{font-size:10px;}
</style>
<rect id="backgorund" class="st0" width="805" height="600"/>
<g id="viz" transform="translate(402.5,300)">
	<path class="st1" d="M1-143c79,0.6,142.5,65,142,144c-0.1,19.4-4.2,38.6-12,56.4L66.6,28.6c15.8-36.8-1.2-79.4-38-95.2
		c-8.7-3.8-18.1-5.8-27.6-5.9V-143z"/>
	<path class="st2" d="M130.2,59.2c-32.7,71.9-117.5,103.7-189.4,71c-1.4-0.6-2.8-1.3-4.2-2l31.7-63c36,17.5,79.4,2.5,96.9-33.5
		c0.2-0.4,0.4-0.8,0.6-1.2L130.2,59.2z"/>
	<path class="st3" d="M-65.2,127.3c-70.3-36-98.1-122.2-62-192.5c7.5-14.6,17.4-27.8,29.4-39.1L-50-52.5C-79-24.9-80.1,20.9-52.5,50
		c5.5,5.8,11.9,10.6,19,14.3L-65.2,127.3z"/>
	<path class="st4" d="M-96.4-105.6C-70.3-129.4-36.3-142.7-1-143v70.5c-17.6,0.2-34.4,6.9-47.5,18.6L-96.4-105.6z"/>
	<path class="st1" d="M1-215.5c21.7,0.1,43.3,3.5,64,10l-21.6,67.1c-13.7-4.3-28-6.6-42.4-6.7V-215.5z"/>
	<path class="st1" d="M66.9-204.9c59.8,19.5,108,64.2,132.1,122.2l-65.2,26.7c-16.2-38.8-48.5-68.7-88.5-81.8L66.9-204.9z"/>
	<path class="st1" d="M199.8-80.8c6.5,16,11,32.7,13.5,49.7l-69.8,9.8c-1.7-11.3-4.6-22.3-8.9-32.8L199.8-80.8z"/>
	<path class="st1" d="M213.5-29.1c1.7,12.6,2.3,25.4,1.8,38.1l-70.4-3.3c0.3-8.4-0.1-16.7-1.2-25L213.5-29.1z"/>
	<path class="st1" d="M215.2,11c-1.3,26.2-7.5,51.9-18,75.9l-64.4-28.7c7-16,11.1-33,12-50.4L215.2,11z"/>
	<path class="st2" d="M196.4,88.8c-14.5,32.1-36.7,60.2-64.6,81.8l-42.8-56c18.6-14.4,33.3-33.1,43.1-54.5L196.4,88.8z"/>
	<path class="st2" d="M130.2,171.7c-24.5,18.6-52.7,31.7-82.6,38.5l-15.2-68.8c19.9-4.6,38.7-13.3,55-25.6L130.2,171.7z"/>
	<path class="st2" d="M45.6,210.6c-25.6,5.5-52,6.4-78,2.4l10.9-69.7c17.2,2.6,34.8,2,51.8-1.6L45.6,210.6z"/>
	<path class="st2" d="M-34.4,212.7c-21.4-3.5-42.2-10.1-61.7-19.8l31.7-63c12.9,6.4,26.7,10.8,40.9,13.1L-34.4,212.7z"/>
	<path class="st3" d="M-97.8,192c-31.4-16-58.4-39.5-78.7-68.4l57.9-40.2C-105,102.7-87,118.3-66.1,129L-97.8,192z"/>
	<path class="st3" d="M-177.6,122C-202.7,85.4-216,42-215.5-2.4l70.5,1.1c-0.3,29.6,8.6,58.6,25.3,83.1L-177.6,122z"/>
	<path class="st3" d="M-215.5-4.4c0.2-8.3,0.8-16.5,1.9-24.7l69.8,9.8c-0.7,5.3-1.1,10.6-1.2,16L-215.5-4.4z"/>
	<path class="st3" d="M-213.3-31.1c3.8-25.9,12.3-51,25-73.9l61.4,34.6c-8.4,15.2-14.1,31.9-16.6,49.1L-213.3-31.1z"/>
	<path class="st3" d="M-187.2-106.7c10.8-18.9,24.3-36,40.2-50.8l47.9,51.8c-10.5,9.8-19.5,21.2-26.6,33.7L-187.2-106.7z"/>
	<path class="st4" d="M-145.6-158.9c12.7-11.6,26.8-21.7,41.9-30l33.7,61.9c-10,5.5-19.2,12.1-27.6,19.8L-145.6-158.9z"/>
	<path class="st4" d="M-102-189.8c19.1-10.3,39.7-17.6,61-21.7l13.1,69.3c-14.1,2.8-27.8,7.6-40.5,14.4L-102-189.8z"/>
	<path class="st4" d="M-39-211.9c8.1-1.5,16.4-2.5,24.6-3.1l4.4,70.4c-5.3,0.4-10.6,1-15.9,2L-39-211.9z"/>
	<path class="st4" d="M-12.4-215.1c3.8-0.2,7.6-0.3,11.4-0.4v70.5c-2.3,0-4.7,0.1-7,0.2L-12.4-215.1z"/>
	<path class="st1" d="M1-288c5.3,0,10.6,0.2,15.9,0.5l-4.4,70.4c-3.8-0.2-7.7-0.3-11.5-0.4V-288z"/>
	<path class="st1" d="M18.9-287.4c5.3,0.3,10.6,0.8,15.8,1.5l-8.7,70c-3.8-0.5-7.6-0.8-11.5-1.1L18.9-287.4z"/>
	<path class="st1" d="M36.7-285.6c5.3,0.7,10.5,1.5,15.7,2.5l-13.1,69.3c-3.8-0.7-7.6-1.3-11.4-1.8L36.7-285.6z"/>
	<path class="st1" d="M54.4-282.8c5.2,1,10.4,2.1,15.5,3.4L52.6-211c-3.7-0.9-7.5-1.8-11.3-2.5L54.4-282.8z"/>
	<path class="st1" d="M71.9-278.9c5.1,1.3,10.2,2.8,15.3,4.4l-21.6,67.1c-3.7-1.2-7.4-2.2-11.1-3.2L71.9-278.9z"/>
	<path class="st1" d="M89.1-273.9c5,1.6,10,3.4,15,5.3l-25.7,65.6c-3.6-1.4-7.2-2.7-10.9-3.9L89.1-273.9z"/>
	<path class="st1" d="M106-267.8c4.9,2,9.8,4,14.6,6.3l-29.7,63.9c-3.5-1.6-7-3.1-10.6-4.5L106-267.8z"/>
	<path class="st1" d="M122.4-260.7c4.8,2.3,9.5,4.6,14.2,7.2L103-191.6c-3.4-1.8-6.8-3.5-10.3-5.2L122.4-260.7z"/>
	<path class="st1" d="M138.4-252.6c4.7,2.5,9.2,5.2,13.7,8l-37.4,59.7c-3.3-2-6.6-4-10-5.8L138.4-252.6z"/>
	<path class="st1" d="M153.8-243.5c4.5,2.8,8.9,5.8,13.2,8.9l-41.1,57.3c-3.1-2.2-6.3-4.4-9.6-6.4L153.8-243.5z"/>
	<path class="st1" d="M168.6-233.5c4.3,3.1,8.5,6.3,12.6,9.7l-44.6,54.6c-3-2.4-6-4.8-9.2-7L168.6-233.5z"/>
	<path class="st1" d="M182.8-222.5c4.1,3.4,8.1,6.8,12,10.4L147-160.3c-2.8-2.6-5.7-5.1-8.7-7.6L182.8-222.5z"/>
	<path class="st1" d="M196.3-210.7c3.9,3.6,7.7,7.3,11.3,11.2l-51,48.7c-2.7-2.8-5.4-5.5-8.2-8.1L196.3-210.7z"/>
	<path class="st1" d="M209-198.1c3.6,3.9,7.2,7.8,10.6,11.8l-53.9,45.4c-2.5-2.9-5.1-5.8-7.7-8.6L209-198.1z"/>
	<path class="st1" d="M220.9-184.7c3.4,4.1,6.7,8.2,9.9,12.5l-56.6,42c-2.3-3.1-4.7-6.1-7.1-9L220.9-184.7z"/>
	<path class="st1" d="M232-170.6c3.1,4.3,6.2,8.6,9.1,13.1l-59.1,38.4c-2.1-3.2-4.3-6.4-6.6-9.5L232-170.6z"/>
	<path class="st1" d="M242.2-155.9c2.9,4.5,5.6,9,8.2,13.6L189-107.7c-1.9-3.3-3.9-6.6-6-9.9L242.2-155.9z"/>
	<path class="st1" d="M251.4-140.5c2.6,4.6,5,9.3,7.4,14.1l-63.5,30.7c-1.7-3.5-3.5-6.9-5.3-10.2L251.4-140.5z"/>
	<path class="st1" d="M259.6-124.6c2.3,4.8,4.5,9.6,6.5,14.5l-65.2,26.7c-1.5-3.6-3-7.1-4.7-10.5L259.6-124.6z"/>
	<path class="st1" d="M266.9-108.3c2,4.9,3.9,9.9,5.6,14.9l-66.8,22.6c-1.2-3.6-2.6-7.2-4-10.8L266.9-108.3z"/>
	<path class="st1" d="M273.1-91.5c1.7,5,3.2,10.1,4.6,15.2l-68.1,18.4c-1-3.7-2.1-7.4-3.4-11L273.1-91.5z"/>
	<path class="st1" d="M278.3-74.3c1.4,5.1,2.6,10.3,3.7,15.5l-69.1,14.2c-0.8-3.8-1.7-7.5-2.7-11.2L278.3-74.3z"/>
	<path class="st1" d="M282.3-56.9c1,5.2,2,10.4,2.7,15.7l-69.8,9.8c-0.6-3.8-1.2-7.6-2-11.4L282.3-56.9z"/>
	<path class="st1" d="M285.3-39.2c0.7,5.3,1.3,10.5,1.7,15.8l-70.3,5.5c-0.3-3.8-0.7-7.7-1.3-11.5L285.3-39.2z"/>
	<path class="st1" d="M287.2-21.4c0.4,5.3,0.6,10.6,0.7,15.9l-70.5,1.1c-0.1-3.8-0.3-7.7-0.5-11.5L287.2-21.4z"/>
	<path class="st1" d="M288-3.5c0.1,5.3,0,10.6-0.2,15.9l-70.4-3.3c0.2-3.8,0.2-7.7,0.2-11.5L288-3.5z"/>
	<path class="st1" d="M287.6,14.4c-0.3,5.3-0.7,10.6-1.2,15.9l-70.1-7.7c0.4-3.8,0.7-7.7,0.9-11.5L287.6,14.4z"/>
	<path class="st1" d="M286.2,32.3c-0.6,5.3-1.3,10.5-2.2,15.8l-69.5-12c0.6-3.8,1.2-7.6,1.6-11.4L286.2,32.3z"/>
	<path class="st1" d="M283.6,50c-0.9,5.2-2,10.4-3.2,15.6l-68.6-16.3c0.9-3.7,1.6-7.5,2.3-11.3L283.6,50z"/>
	<path class="st1" d="M280,67.6c-1.2,5.2-2.6,10.3-4.2,15.4l-67.4-20.5c1.1-3.7,2.1-7.4,3-11.1L280,67.6z"/>
	<path class="st1" d="M275.2,84.8c-1.6,5.1-3.3,10.1-5.1,15.1l-66-24.7c1.3-3.6,2.6-7.2,3.7-10.9L275.2,84.8z"/>
	<path class="st1" d="M269.4,101.8c-1.9,5-3.9,9.9-6,14.7L199,87.8c1.6-3.5,3-7.1,4.4-10.7L269.4,101.8z"/>
	<path class="st2" d="M262.6,118.3c-2.2,4.8-4.5,9.6-6.9,14.3L193.2,100c1.8-3.4,3.4-6.9,5-10.4L262.6,118.3z"/>
	<path class="st2" d="M254.7,134.4c-2.5,4.7-5.1,9.3-7.8,13.9l-60.3-36.5c2-3.3,3.9-6.6,5.7-10L254.7,134.4z"/>
	<path class="st2" d="M245.9,150c-2.8,4.5-5.7,9-8.7,13.4l-57.9-40.2c2.2-3.2,4.3-6.4,6.3-9.7L245.9,150z"/>
	<path class="st2" d="M236.1,165c-3,4.3-6.2,8.6-9.5,12.8l-55.3-43.7c2.4-3,4.7-6.1,6.9-9.3L236.1,165z"/>
	<path class="st2" d="M225.3,179.3c-3.3,4.2-6.7,8.2-10.3,12.2l-52.5-47.1c2.6-2.9,5-5.8,7.4-8.8L225.3,179.3z"/>
	<path class="st2" d="M213.8,193c-3.6,3.9-7.2,7.8-11,11.5l-49.5-50.2c2.7-2.7,5.4-5.5,8-8.3L213.8,193z"/>
	<path class="st2" d="M201.3,205.9c-3.8,3.7-7.7,7.3-11.7,10.8l-46.2-53.2c2.9-2.5,5.7-5.1,8.5-7.8L201.3,205.9z"/>
	<path class="st2" d="M188.2,218c-4,3.5-8.1,6.8-12.3,10.1l-42.8-56c3-2.3,6-4.8,8.9-7.3L188.2,218z"/>
	<path class="st2" d="M174.2,229.3c-4.2,3.2-8.5,6.3-12.9,9.3L122,180.1c3.2-2.2,6.3-4.4,9.4-6.7L174.2,229.3z"/>
	<path class="st2" d="M159.6,239.7c-4.4,2.9-8.9,5.8-13.5,8.5l-35.6-60.9c3.3-2,6.6-4,9.8-6.1L159.6,239.7z"/>
	<path class="st2" d="M144.4,249.2c-4.6,2.7-9.3,5.2-14,7.6l-31.7-63c3.4-1.7,6.8-3.6,10.1-5.5L144.4,249.2z"/>
	<path class="st2" d="M128.7,257.7c-4.7,2.4-9.6,4.6-14.4,6.7l-27.7-64.8c3.5-1.5,7-3.2,10.5-4.9L128.7,257.7z"/>
	<path class="st2" d="M112.4,265.2c-4.9,2.1-9.8,4-14.8,5.8l-23.7-66.4c3.6-1.3,7.2-2.7,10.7-4.2L112.4,265.2z"/>
	<path class="st2" d="M95.7,271.6c-5,1.8-10.1,3.4-15.2,4.9l-19.5-67.8c3.7-1.1,7.3-2.3,11-3.5L95.7,271.6z"/>
	<path class="st2" d="M78.6,277.1c-5.1,1.4-10.2,2.8-15.4,3.9L48,212.1c3.7-0.8,7.5-1.8,11.2-2.8L78.6,277.1z"/>
	<path class="st2" d="M61.2,281.4c-5.2,1.1-10.4,2.1-15.6,3l-10.9-69.6c3.8-0.6,7.6-1.3,11.3-2.1L61.2,281.4z"/>
	<path class="st2" d="M43.6,284.7c-5.2,0.8-10.5,1.5-15.8,2l-6.6-70.2c3.8-0.4,7.6-0.9,11.4-1.4L43.6,284.7z"/>
	<path class="st2" d="M25.8,286.8c-5.3,0.5-10.6,0.8-15.9,1l-2.2-70.5c3.8-0.1,7.7-0.4,11.5-0.7L25.8,286.8z"/>
	<path class="st2" d="M8,287.9C2.7,288-2.7,288-8,287.9l2.2-70.5c3.8,0.1,7.7,0.1,11.5,0L8,287.9z"/>
	<path class="st2" d="M-10,287.8c-5.3-0.2-10.6-0.5-15.9-1l6.6-70.2c3.8,0.3,7.7,0.6,11.5,0.7L-10,287.8z"/>
	<path class="st2" d="M-27.8,286.7c-5.3-0.5-10.5-1.2-15.8-2l10.9-69.6c3.8,0.6,7.6,1.1,11.4,1.4L-27.8,286.7z"/>
	<path class="st2" d="M-45.6,284.4c-5.2-0.8-10.5-1.8-15.6-3l15.2-68.8c3.8,0.8,7.5,1.5,11.3,2.1L-45.6,284.4z"/>
	<path class="st2" d="M-63.2,281c-5.2-1.2-10.3-2.5-15.4-3.9l19.5-67.8c3.7,1,7.4,2,11.2,2.8L-63.2,281z"/>
	<path class="st2" d="M-80.5,276.5c-5.1-1.5-10.1-3.1-15.2-4.9l23.7-66.4c3.6,1.3,7.3,2.4,11,3.5L-80.5,276.5z"/>
	<path class="st2" d="M-97.6,271c-5-1.8-9.9-3.7-14.8-5.8l27.7-64.8c3.5,1.5,7.1,2.9,10.7,4.2L-97.6,271z"/>
	<path class="st2" d="M-114.2,264.4c-4.9-2.1-9.7-4.3-14.4-6.7l31.7-63c3.4,1.7,6.9,3.3,10.5,4.9L-114.2,264.4z"/>
	<path class="st3" d="M-130.4,256.8c-4.7-2.4-9.4-4.9-14-7.6l35.6-60.9c3.3,1.9,6.7,3.8,10.1,5.5L-130.4,256.8z"/>
	<path class="st3" d="M-146.2,248.2c-4.6-2.7-9.1-5.5-13.5-8.5l39.3-58.5c3.2,2.1,6.5,4.2,9.8,6.1L-146.2,248.2z"/>
	<path class="st3" d="M-161.3,238.6c-4.4-3-8.7-6.1-12.9-9.3l42.8-56c3.1,2.3,6.2,4.6,9.4,6.7L-161.3,238.6z"/>
	<path class="st3" d="M-175.8,228.1c-4.2-3.2-8.3-6.6-12.3-10.1l46.2-53.2c2.9,2.5,5.9,4.9,8.9,7.3L-175.8,228.1z"/>
	<path class="st3" d="M-189.7,216.7c-4-3.5-7.9-7.1-11.7-10.8l49.5-50.2c2.8,2.7,5.6,5.3,8.5,7.8L-189.7,216.7z"/>
	<path class="st3" d="M-202.8,204.5c-3.8-3.7-7.4-7.6-11-11.5l52.5-47.1c2.6,2.8,5.2,5.6,8,8.3L-202.8,204.5z"/>
	<path class="st3" d="M-215.1,191.5c-3.5-4-6.9-8-10.3-12.2l55.3-43.7c2.4,3,4.9,5.9,7.4,8.8L-215.1,191.5z"/>
	<path class="st3" d="M-226.6,177.8c-3.3-4.2-6.4-8.4-9.5-12.8l57.9-40.2c2.2,3.1,4.5,6.2,6.9,9.3L-226.6,177.8z"/>
	<path class="st3" d="M-237.2,163.3c-3-4.4-5.9-8.8-8.7-13.4l60.3-36.5c2,3.3,4.1,6.5,6.3,9.7L-237.2,163.3z"/>
	<path class="st3" d="M-246.9,148.3c-2.7-4.5-5.3-9.2-7.8-13.9l62.5-32.7c1.8,3.4,3.7,6.7,5.7,10L-246.9,148.3z"/>
	<path class="st3" d="M-255.6,132.6c-2.4-4.7-4.8-9.5-6.9-14.3l64.4-28.7c1.6,3.5,3.3,7,5,10.4L-255.6,132.6z"/>
	<path class="st3" d="M-263.4,116.5c-2.1-4.9-4.2-9.8-6-14.7l66-24.7c1.4,3.6,2.8,7.2,4.4,10.7L-263.4,116.5z"/>
	<path class="st3" d="M-270.1,99.9c-1.8-5-3.5-10-5.1-15.1l67.4-20.5c1.1,3.7,2.4,7.3,3.7,10.9L-270.1,99.9z"/>
	<path class="st3" d="M-275.8,82.9c-1.5-5.1-2.9-10.2-4.2-15.4l68.6-16.3c0.9,3.7,1.9,7.4,3,11.1L-275.8,82.9z"/>
	<path class="st3" d="M-280.4,65.6c-1.2-5.2-2.3-10.4-3.2-15.6l69.5-12c0.7,3.8,1.4,7.6,2.3,11.3L-280.4,65.6z"/>
	<path class="st3" d="M-284,48c-0.9-5.2-1.6-10.5-2.2-15.8l70.1-7.7c0.4,3.8,1,7.6,1.6,11.4L-284,48z"/>
	<path class="st3" d="M-286.4,30.3c-0.6-5.3-1-10.6-1.2-15.9l70.4-3.3c0.2,3.8,0.5,7.7,0.9,11.5L-286.4,30.3z"/>
	<path class="st3" d="M-287.7,12.4C-288,7.1-288,1.8-288-3.5l70.5,1.1c0,3.8,0,7.7,0.2,11.5L-287.7,12.4z"/>
	<path class="st3" d="M-287.9-5.5c0.1-5.3,0.3-10.6,0.7-15.9l70.3,5.5c-0.3,3.8-0.5,7.7-0.5,11.5L-287.9-5.5z"/>
	<path class="st3" d="M-287.1-23.4c0.4-5.3,1-10.6,1.7-15.8l69.8,9.8c-0.5,3.8-0.9,7.6-1.3,11.5L-287.1-23.4z"/>
	<path class="st3" d="M-285-41.2c0.8-5.3,1.7-10.5,2.7-15.7l69.1,14.2c-0.8,3.8-1.4,7.6-2,11.4L-285-41.2z"/>
	<path class="st3" d="M-281.9-58.8c1.1-5.2,2.3-10.4,3.7-15.5l68.1,18.4c-1,3.7-1.9,7.5-2.7,11.2L-281.9-58.8z"/>
	<path class="st3" d="M-277.7-76.2c1.4-5.1,2.9-10.2,4.6-15.2l66.8,22.6c-1.2,3.6-2.3,7.3-3.4,11L-277.7-76.2z"/>
	<path class="st3" d="M-272.5-93.3c1.7-5,3.6-10,5.6-14.9l65.2,26.7c-1.4,3.6-2.8,7.2-4,10.8L-272.5-93.3z"/>
	<path class="st3" d="M-266.1-110.1c2-4.9,4.2-9.7,6.5-14.5l63.5,30.7c-1.7,3.5-3.2,7-4.7,10.5L-266.1-110.1z"/>
	<path class="st3" d="M-258.8-126.4c2.3-4.8,4.8-9.5,7.4-14.1l61.4,34.6c-1.9,3.4-3.7,6.8-5.3,10.2L-258.8-126.4z"/>
	<path class="st3" d="M-250.4-142.3c2.6-4.6,5.4-9.2,8.2-13.6l59.1,38.4c-2.1,3.2-4.1,6.5-6,9.9L-250.4-142.3z"/>
	<path class="st3" d="M-241.1-157.6c2.9-4.4,5.9-8.8,9.1-13.1l56.6,42c-2.3,3.1-4.5,6.3-6.6,9.5L-241.1-157.6z"/>
	<path class="st3" d="M-230.8-172.3c3.2-4.3,6.5-8.4,9.9-12.5l53.9,45.4c-2.5,3-4.8,6-7.1,9L-230.8-172.3z"/>
	<path class="st3" d="M-219.7-186.3c3.4-4,7-8,10.6-11.8l51,48.7c-2.6,2.8-5.2,5.7-7.7,8.6L-219.7-186.3z"/>
	<path class="st3" d="M-207.7-199.6c3.7-3.8,7.5-7.5,11.3-11.2l47.9,51.8c-2.8,2.6-5.5,5.3-8.2,8.1L-207.7-199.6z"/>
	<path class="st4" d="M-194.8-212.1c3.9-3.6,7.9-7.1,12-10.4l44.6,54.6c-3,2.4-5.9,5-8.7,7.6L-194.8-212.1z"/>
	<path class="st4" d="M-181.3-223.8c4.1-3.3,8.3-6.6,12.6-9.7l41.1,57.3c-3.1,2.3-6.2,4.6-9.2,7L-181.3-223.8z"/>
	<path class="st4" d="M-167-234.6c4.3-3.1,8.7-6,13.2-8.9l37.4,59.7c-3.2,2.1-6.4,4.2-9.6,6.4L-167-234.6z"/>
	<path class="st4" d="M-152.1-244.6c4.5-2.8,9.1-5.5,13.7-8l33.7,61.9c-3.4,1.9-6.7,3.8-10,5.8L-152.1-244.6z"/>
	<path class="st4" d="M-136.6-253.5c4.7-2.5,9.4-4.9,14.2-7.2l29.7,63.9c-3.5,1.6-6.9,3.4-10.3,5.2L-136.6-253.5z"/>
	<path class="st4" d="M-120.6-261.5c4.8-2.2,9.7-4.3,14.6-6.3l25.7,65.6c-3.6,1.4-7.1,2.9-10.6,4.5L-120.6-261.5z"/>
	<path class="st4" d="M-104.1-268.5c4.9-1.9,9.9-3.7,15-5.3l21.6,67.1c-3.7,1.2-7.3,2.5-10.9,3.9L-104.1-268.5z"/>
	<path class="st4" d="M-87.2-274.5c5.1-1.6,10.2-3.1,15.3-4.4l17.4,68.3c-3.7,1-7.4,2-11.1,3.2L-87.2-274.5z"/>
	<path class="st4" d="M-70-279.4c5.1-1.3,10.3-2.4,15.5-3.4l13.1,69.3c-3.8,0.7-7.5,1.6-11.3,2.5L-70-279.4z"/>
	<path class="st4" d="M-52.5-283.2c5.2-1,10.5-1.8,15.7-2.5l8.7,70c-3.8,0.5-7.6,1.1-11.4,1.8L-52.5-283.2z"/>
	<path class="st4" d="M-34.7-285.9c5.3-0.6,10.6-1.1,15.8-1.5l4.4,70.4c-3.8,0.3-7.7,0.6-11.5,1.1L-34.7-285.9z"/>
	<path class="st4" d="M-16.9-287.5c5.3-0.3,10.6-0.5,15.9-0.5v70.5c-3.8,0-7.7,0.1-11.5,0.4L-16.9-287.5z"/>
</g>
<g id="labels" transform="translate(402.5,300)">
	<text transform="matrix(0.839 -0.5442 0.5442 0.839 60.539 -34.5016)" class="st5 st6">Modern orchestra</text>
	<text transform="matrix(0.3355 0.942 -0.942 0.3355 13.8863 50.9116)" class="st5 st6">Early Romantic orchestra</text>
	<text transform="matrix(0.9902 -0.1395 0.1395 0.9902 -161.0659 26.7326)" class="st5 st6">Late Romantic orchestra</text>
	<text transform="matrix(0.3647 0.9311 -0.9311 0.3647 -58.7816 -139.1315)" class="st5 st6">Classical orchestra</text>
	<text transform="matrix(0.1549 -0.9879 0.9879 0.1549 30.0473 -165.8166)" class="st5 st6">Brass</text>
	<text transform="matrix(0.6791 -0.7341 0.7341 0.6791 109.2242 -112.1754)" class="st5 st6">Percussion</text>
	<text transform="matrix(0.9653 -0.2613 0.2613 0.9653 151.0505 -36.7498)" class="st5 st6">Woodwinds</text>
	<text transform="matrix(0.9989 -4.664039e-02 4.664039e-02 0.9989 157.3615 -3.343)" class="st5 st6">Keyboards</text>
	<text transform="matrix(0.9729 0.2312 -0.2312 0.9729 160.2756 42.195)" class="st5 st6">Strings</text>
	<text transform="matrix(0.7846 0.62 -0.62 0.7846 119.4502 99.4912)" class="st5 st6">Woodwinds</text>
	<text transform="matrix(0.4218 0.9067 -0.9067 0.4218 62.3976 143.5962)" class="st5 st6">Percussion</text>
	<text transform="matrix(3.109991e-02 0.9995 -0.9995 3.109991e-02 1.1552 165.7327)" class="st5 st6">Strings</text>
	<text transform="matrix(0.3061 -0.952 0.952 0.3061 -55.5764 185.9443)" class="st5 st6">Brass</text>
	<text transform="matrix(0.6559 -0.7548 0.7548 0.6559 -132.8201 158.9438)" class="st5 st6">Woodwinds</text>
	<text transform="matrix(0.9567 -0.2912 0.2912 0.9567 -195.8913 63.8121)" class="st5 st6">Percussion</text>
	<text transform="matrix(0.997 7.768383e-02 -7.768383e-02 0.997 -204.8446 -11.9493)" class="st5 st6">Keyboards</text>
	<text transform="matrix(0.9471 0.3208 -0.3208 0.9471 -187.6911 -59.3536)" class="st5 st6">Strings</text>
	<text transform="matrix(0.7846 0.62 -0.62 0.7846 -154.7153 -117.1626)" class="st5 st6">Brass</text>
	<text transform="matrix(0.5827 0.8127 -0.8127 0.5827 -123.9333 -165.9662)" class="st5 st6">Woodwinds</text>
	<text transform="matrix(0.3355 0.942 -0.942 0.3355 -69.8012 -184.061)" class="st5 st6">Strings</text>
	<text transform="matrix(0.1241 0.9923 -0.9923 0.1241 -28.0483 -192.0344)" class="st5 st6">Brass</text>
	<text transform="matrix(3.109964e-02 0.9995 -0.9995 3.109964e-02 -10.4035 -205.7598)" class="st5 st6">Percussion</text>
	<text transform="matrix(3.109991e-02 -0.9995 0.9995 3.109991e-02 10.9561 -223.4977)" class="st5 st6">Baritone horn</text>
	<text transform="matrix(9.317927e-02 -0.9956 0.9956 9.317927e-02 24.8047 -222.1166)" class="st5 st6">French Horns</text>
	<text transform="matrix(0.1549 -0.9879 0.9879 0.1549 39.3976 -225.4514)" class="st5 st6">Trombones</text>
	<text transform="matrix(0.216 -0.9764 0.9764 0.216 54.2389 -226.6399)" class="st5 st6">Trumpets</text>
	<text transform="matrix(0.2763 -0.9611 0.9611 0.2763 70.2189 -229.7676)" class="st5 st6">Tubas</text>
	<text transform="matrix(0.3355 -0.942 0.942 0.3355 80.6092 -214.4054)" class="st5 st6">Bass Drum</text>
	<text transform="matrix(0.3934 -0.9194 0.9194 0.3934 95.8596 -213.8321)" class="st5 st6">Cymbals</text>
	<text transform="matrix(0.4498 -0.8931 0.8931 0.4498 104.8397 -199.263)" class="st5 st6">Glockenspiel</text>
	<text transform="matrix(0.5045 -0.8634 0.8634 0.5045 121.655 -200.2837)" class="st5 st6">Marimba</text>
	<text transform="matrix(0.5572 -0.8304 0.8304 0.5572 129.6895 -186.1005)" class="st5 st6">Snare Drum</text>
	<text transform="matrix(0.6077 -0.7941 0.7941 0.6077 145.5131 -183.5638)" class="st5 st6">Tam-tam</text>
	<text transform="matrix(0.6559 -0.7548 0.7548 0.6559 152.2623 -169.1207)" class="st5 st6">Tambourine</text>
	<text transform="matrix(0.7016 -0.7126 0.7126 0.7016 163.0694 -159.924)" class="st5 st6">Tenor drum</text>
	<text transform="matrix(0.7445 -0.6676 0.6676 0.7445 178.3875 -154.58)" class="st5 st6">Timpani</text>
	<text transform="matrix(0.7846 -0.62 0.62 0.7846 187.6892 -143.2192)" class="st5 st6">Triangle</text>
	<text transform="matrix(0.8216 -0.57 0.57 0.8216 187.5525 -125.2533)" class="st5 st6">Tubular bells</text>
	<text transform="matrix(0.8555 -0.5178 0.5178 0.8555 197.345 -114.7847)" class="st5 st6">Vibraphone</text>
	<text transform="matrix(0.886 -0.4637 0.4637 0.886 203.5346 -101.9983)" class="st5 st6">Wood block</text>
	<text transform="matrix(0.9131 -0.4077 0.4077 0.9131 211.7582 -90.1634)" class="st5 st6">Xylophone</text>
	<text transform="matrix(0.9367 -0.3501 0.3501 0.9367 218.5206 -77.4095)" class="st5 st6">Bassoons</text>
	<text transform="matrix(0.9567 -0.2912 0.2912 0.9567 225.0428 -64.3237)" class="st5 st6">Clarinets</text>
	<text transform="matrix(0.9729 -0.2312 0.2312 0.9729 234.5542 -51.6218)" class="st5 st6">Flutes</text>
	<text transform="matrix(0.9854 -0.1702 0.1702 0.9854 236.2103 -36.7498)" class="st5 st6">Oboes</text>
	<text transform="matrix(0.9941 -0.1087 0.1087 0.9941 235.8296 -21.7522)" class="st5 st6">Celesta</text>
	<text transform="matrix(0.9989 -4.664039e-02 4.664039e-02 0.9989 240.8862 -7.2429)" class="st5 st6">Piano</text>
	<text transform="matrix(0.9999 1.555181e-02 -1.555181e-02 0.9999 229.4755 7.5697)" class="st5 st6">Pipe organ</text>
	<text transform="matrix(0.997 7.768385e-02 -7.768385e-02 0.997 238.8204 22.621)" class="st5 st6">Cellos</text>
	<text transform="matrix(0.9902 0.1395 -0.1395 0.9902 217.9574 34.7482)" class="st5 st6">Double basses</text>
	<text transform="matrix(0.9796 0.2008 -0.2008 0.9796 234.7124 52.1951)" class="st5 st6">Harps</text>
	<text transform="matrix(0.9653 0.2613 -0.2613 0.9653 230.8296 66.6364)" class="st5 st6">Violas</text>
	<text transform="matrix(0.9471 0.3208 -0.3208 0.9471 221.2389 79.1638)" class="st5 st6">Violins 1</text>
	<text transform="matrix(0.9254 0.3791 -0.3791 0.9254 215.8893 92.765)" class="st5 st6">Violins 2</text>
	<text transform="matrix(0.9 0.4359 -0.4359 0.9 199.8718 101.2451)" class="st5 st6">Bass Clarinet</text>
	<text transform="matrix(0.8712 0.491 -0.491 0.8712 199.9648 117.2931)" class="st5 st6">Bassoons</text>
	<text transform="matrix(0.839 0.5442 -0.5442 0.839 194.1559 130.7109)" class="st5 st6">Clarinets</text>
	<text transform="matrix(0.8035 0.5953 -0.5953 0.8035 174.2587 134.0861)" class="st5 st6">Contrabassoon</text>
	<text transform="matrix(0.7649 0.6441 -0.6441 0.7649 169.6285 148.0649)" class="st5 st6">English Horn</text>
	<text transform="matrix(0.7234 0.6904 -0.6904 0.7234 170.9535 168.687)" class="st5 st6">Flutes</text>
	<text transform="matrix(0.6791 0.7341 -0.7341 0.6791 159.3776 178.1698)" class="st5 st6">Oboes</text>
	<text transform="matrix(0.6321 0.7749 -0.7749 0.6321 147.1165 186.6593)" class="st5 st6">Piccolo</text>
	<text transform="matrix(0.5827 0.8127 -0.8127 0.5827 130.2112 188.4487)" class="st5 st6">Bass Drum</text>
	<text transform="matrix(0.5311 0.8473 -0.8473 0.5311 121.046 200.6516)" class="st5 st6">Cymbals</text>
	<text transform="matrix(0.4774 0.8787 -0.8787 0.4774 103.9566 199.7249)" class="st5 st6">Glockenspiel</text>
	<text transform="matrix(0.4218 0.9067 -0.9067 0.4218 92.0441 207.3179)" class="st5 st6">Snare Drum</text>
	<text transform="matrix(0.3647 0.9311 -0.9311 0.3647 79.2448 213.3212)" class="st5 st6">Tambourine</text>
	<text transform="matrix(0.3061 0.952 -0.952 0.3061 68.4247 225.9096)" class="st5 st6">Timpani</text>
	<text transform="matrix(0.2463 0.9692 -0.9692 0.2463 54.2594 229.7714)" class="st5 st6">Triangle</text>
	<text transform="matrix(0.1855 0.9826 -0.9826 0.1855 40.5743 236.4331)" class="st5 st6">Cellos</text>
	<text transform="matrix(0.1241 0.9923 -0.9923 0.1241 23.4165 219.4644)" class="st5 st6">Double basses</text>
	<text transform="matrix(6.216959e-02 0.9981 -0.9981 6.216959e-02 10.9547 240.1962)" class="st5 st6">Harps</text>
	<text transform="matrix(6.123234e-17 1 -1 6.123234e-17 -4 240.2222)" class="st5 st6">Violas</text>
	<text transform="matrix(6.216959e-02 -0.9981 0.9981 6.216959e-02 -12.9526 272.2802)" class="st5 st6">Violins 1</text>
	<text transform="matrix(0.1241 -0.9923 0.9923 0.1241 -29.8551 270.9481)" class="st5 st6">Violins 2</text>
	<text transform="matrix(0.1855 -0.9826 0.9826 0.1855 -45.9369 264.8322)" class="st5 st6">Cornet</text>
	<text transform="matrix(0.2463 -0.9692 0.9692 0.2463 -66.0758 276.275)" class="st5 st6">French Horns</text>
	<text transform="matrix(0.3061 -0.952 0.952 0.3061 -81.48 266.5185)" class="st5 st6">Trombones</text>
	<text transform="matrix(0.3647 -0.9311 0.9311 0.3647 -96.3702 257.0525)" class="st5 st6">Trumpets</text>
	<text transform="matrix(0.4218 -0.9067 0.9067 0.4218 -109.1193 244.0184)" class="st5 st6">Tubas</text>
	<text transform="matrix(0.4774 -0.8787 0.8787 0.4774 -131.8166 251.0048)" class="st5 st6">Bass Clarinet</text>
	<text transform="matrix(0.5311 -0.8473 0.8473 0.5311 -143.0368 235.7358)" class="st5 st6">Bassoons</text>
	<text transform="matrix(0.5827 -0.8127 0.8127 0.5827 -156.1169 224.5762)" class="st5 st6">Clarinets</text>
	<text transform="matrix(0.6321 -0.7749 0.7749 0.6321 -178.7417 225.4251)" class="st5 st6">Contrabassoon</text>
	<text transform="matrix(0.6791 -0.7341 0.7341 0.6791 -188.8212 209.9965)" class="st5 st6">English Horn</text>
	<text transform="matrix(0.7234 -0.6904 0.6904 0.7234 -190.653 187.4882)" class="st5 st6">Flutes</text>
	<text transform="matrix(0.7649 -0.6441 0.6441 0.7649 -202.7937 175.9912)" class="st5 st6">Oboes</text>
	<text transform="matrix(0.8035 -0.5953 0.5953 0.8035 -214.4571 163.8688)" class="st5 st6">Piccolo</text>
	<text transform="matrix(0.839 -0.5442 0.5442 0.839 -231.4519 154.9041)" class="st5 st6">Bass Drum</text>
	<text transform="matrix(0.8712 -0.491 0.491 0.8712 -233.8582 136.3961)" class="st5 st6">Chimes</text>
	<text transform="matrix(0.9 -0.4359 0.4359 0.9 -244.1357 122.6829)" class="st5 st6">Cymbals</text>
	<text transform="matrix(0.9254 -0.3791 0.3791 0.9254 -259.7828 110.7466)" class="st5 st6">Glockenspiel</text>
	<text transform="matrix(0.9471 -0.3208 0.3208 0.9471 -264.5815 93.8455)" class="st5 st6">Snare Drum</text>
	<text transform="matrix(0.9653 -0.2613 0.2613 0.9653 -262.7493 75.2779)" class="st5 st6">Tam-tam</text>
	<text transform="matrix(0.9796 -0.2008 0.2008 0.9796 -273.4647 60.1386)" class="st5 st6">Tambourine</text>
	<text transform="matrix(0.9902 -0.1395 0.1395 0.9902 -268.276 41.8378)" class="st5 st6">Timpani</text>
	<text transform="matrix(0.997 -7.768383e-02 7.768383e-02 0.997 -270.3119 25.0746)" class="st5 st6">Triangle</text>
	<text transform="matrix(0.9999 -1.555170e-02 1.555170e-02 0.9999 -277.2846 8.3133)" class="st5 st6">Xylophone</text>
	<text transform="matrix(0.9989 4.664033e-02 -4.664033e-02 0.9989 -270.5951 -8.63)" class="st5 st6">Celesta</text>
	<text transform="matrix(0.9941 0.1087 -0.1087 0.9941 -265.3947 -24.9837)" class="st5 st6">Piano</text>
	<text transform="matrix(0.9854 0.1702 -0.1702 0.9854 -264.4179 -41.623)" class="st5 st6">Cellos</text>
	<text transform="matrix(0.9729 0.2312 -0.2312 0.9729 -279.9813 -62.4157)" class="st5 st6">Double basses</text>
	<text transform="matrix(0.9567 0.2912 -0.2912 0.9567 -256.6762 -73.9532)" class="st5 st6">Harps</text>
	<text transform="matrix(0.9367 0.3501 -0.3501 0.9367 -251.7604 -89.8343)" class="st5 st6">Violas</text>
	<text transform="matrix(0.9131 0.4077 -0.4077 0.9131 -250.5101 -107.4651)" class="st5 st6">Violins 1</text>
	<text transform="matrix(0.886 0.4637 -0.4637 0.886 -243.3446 -122.8316)" class="st5 st6">Violins 2</text>
	<text transform="matrix(0.8555 0.5178 -0.5178 0.8555 -245.0577 -143.6674)" class="st5 st6">French Horns</text>
	<text transform="matrix(0.8216 0.57 -0.57 0.8216 -231.2391 -155.5629)" class="st5 st6">Trombones</text>
	<text transform="matrix(0.7846 0.62 -0.62 0.7846 -217.8471 -167.0508)" class="st5 st6">Trumpets</text>
	<text transform="matrix(0.7445 0.6676 -0.6676 0.7445 -201.6647 -175.4518)" class="st5 st6">Tubas</text>
	<text transform="matrix(0.7016 0.7126 -0.7126 0.7016 -201.8071 -199.2694)" class="st5 st6">Wagner Tuba</text>
	<text transform="matrix(0.6559 0.7548 -0.7548 0.6559 -183.8642 -205.4872)" class="st5 st6">Bassoons</text>
	<text transform="matrix(0.6077 0.7941 -0.7941 0.6077 -169.3788 -214.7502)" class="st5 st6">Clarinets</text>
	<text transform="matrix(0.5572 0.8304 -0.8304 0.5572 -152.2939 -219.7886)" class="st5 st6">Flutes</text>
	<text transform="matrix(0.5045 0.8634 -0.8634 0.5045 -138.8984 -229.7948)" class="st5 st6">Oboes</text>
	<text transform="matrix(0.4498 0.8931 -0.8931 0.4498 -123.9667 -237.2375)" class="st5 st6">Cellos</text>
	<text transform="matrix(0.3934 0.9194 -0.9194 0.3934 -116.5247 -262.1208)" class="st5 st6">Double basses</text>
	<text transform="matrix(0.3355 0.942 -0.942 0.3355 -93.4448 -250.4429)" class="st5 st6">Violas</text>
	<text transform="matrix(0.2763 0.9611 -0.9611 0.2763 -79.1528 -260.843)" class="st5 st6">Violins 1</text>
	<text transform="matrix(0.216 0.9764 -0.9764 0.216 -62.783 -265.2593)" class="st5 st6">Violins 2</text>
	<text transform="matrix(0.1549 0.9879 -0.9879 0.1549 -47.9491 -279.9903)" class="st5 st6">French Horns</text>
	<text transform="matrix(9.317914e-02 0.9956 -0.9956 9.317914e-02 -29.5588 -272.9277)" class="st5 st6">Trumpets</text>
	<text transform="matrix(3.109964e-02 0.9995 -0.9995 3.109964e-02 -12.4406 -271.2336)" class="st5 st6">Timpani</text>
</g>
</svg>
